<mxfile host="65bd71144e">
    <diagram name="페이지-1" id="cALead7TJOT3aW-T0x5h">
        <mxGraphModel dx="3141" dy="1147" grid="1" gridSize="10" guides="1" tooltips="1" connect="1" arrows="1" fold="1" page="1" pageScale="1" pageWidth="827" pageHeight="1169" math="0" shadow="0">
            <root>
                <mxCell id="0"/>
                <mxCell id="1" parent="0"/>
                <mxCell id="xPWGWnJrmiKth1kpf0G5-1" value="main.py" style="swimlane;fontStyle=1;align=center;verticalAlign=top;childLayout=stackLayout;horizontal=1;startSize=26;horizontalStack=0;resizeParent=1;resizeParentMax=0;resizeLast=0;collapsible=1;marginBottom=0;whiteSpace=wrap;html=1;" parent="1" vertex="1">
                    <mxGeometry x="50" y="20" width="160" height="172" as="geometry"/>
                </mxCell>
                <mxCell id="xPWGWnJrmiKth1kpf0G5-2" value="-args: Namespace&lt;div&gt;-model_input: ModelInput&lt;/div&gt;&lt;div&gt;-io_module: IOMoudle&lt;/div&gt;&lt;div&gt;-model: GSCV&lt;/div&gt;&lt;div&gt;&lt;div&gt;&lt;br&gt;&lt;/div&gt;&lt;/div&gt;" style="text;strokeColor=none;fillColor=none;align=left;verticalAlign=top;spacingLeft=4;spacingRight=4;overflow=hidden;rotatable=0;points=[[0,0.5],[1,0.5]];portConstraint=eastwest;whiteSpace=wrap;html=1;" parent="xPWGWnJrmiKth1kpf0G5-1" vertex="1">
                    <mxGeometry y="26" width="160" height="74" as="geometry"/>
                </mxCell>
                <mxCell id="xPWGWnJrmiKth1kpf0G5-3" value="" style="line;strokeWidth=1;fillColor=none;align=left;verticalAlign=middle;spacingTop=-1;spacingLeft=3;spacingRight=3;rotatable=0;labelPosition=right;points=[];portConstraint=eastwest;strokeColor=inherit;" parent="xPWGWnJrmiKth1kpf0G5-1" vertex="1">
                    <mxGeometry y="100" width="160" height="20" as="geometry"/>
                </mxCell>
                <mxCell id="xPWGWnJrmiKth1kpf0G5-4" value="+ get_args()&lt;div&gt;+main()&lt;/div&gt;" style="text;strokeColor=none;fillColor=none;align=left;verticalAlign=top;spacingLeft=4;spacingRight=4;overflow=hidden;rotatable=0;points=[[0,0.5],[1,0.5]];portConstraint=eastwest;whiteSpace=wrap;html=1;" parent="xPWGWnJrmiKth1kpf0G5-1" vertex="1">
                    <mxGeometry y="120" width="160" height="52" as="geometry"/>
                </mxCell>
                <mxCell id="xPWGWnJrmiKth1kpf0G5-7" value="ModelInput" style="swimlane;fontStyle=1;align=center;verticalAlign=top;childLayout=stackLayout;horizontal=1;startSize=26;horizontalStack=0;resizeParent=1;resizeParentMax=0;resizeLast=0;collapsible=1;marginBottom=0;whiteSpace=wrap;html=1;" parent="1" vertex="1">
                    <mxGeometry x="40" y="230" width="270" height="280" as="geometry"/>
                </mxCell>
                <mxCell id="xPWGWnJrmiKth1kpf0G5-8" value="&lt;div&gt;&lt;div&gt;-dataset: MyDataset&lt;/div&gt;&lt;/div&gt;&lt;div&gt;-cv: StratifiedKFold&lt;/div&gt;&lt;div&gt;-outcome: args.outcome&lt;/div&gt;&lt;div&gt;-drop_list: list&lt;/div&gt;&lt;div&gt;-hyperparameter: dict&lt;/div&gt;&lt;div&gt;-target_func&lt;/div&gt;&lt;div&gt;-classifier: dict&lt;/div&gt;&lt;div&gt;&lt;br&gt;&lt;/div&gt;" style="text;strokeColor=none;fillColor=none;align=left;verticalAlign=top;spacingLeft=4;spacingRight=4;overflow=hidden;rotatable=0;points=[[0,0.5],[1,0.5]];portConstraint=eastwest;whiteSpace=wrap;html=1;" parent="xPWGWnJrmiKth1kpf0G5-7" vertex="1">
                    <mxGeometry y="26" width="270" height="114" as="geometry"/>
                </mxCell>
                <mxCell id="xPWGWnJrmiKth1kpf0G5-9" value="" style="line;strokeWidth=1;fillColor=none;align=left;verticalAlign=middle;spacingTop=-1;spacingLeft=3;spacingRight=3;rotatable=0;labelPosition=right;points=[];portConstraint=eastwest;strokeColor=inherit;" parent="xPWGWnJrmiKth1kpf0G5-7" vertex="1">
                    <mxGeometry y="140" width="270" height="20" as="geometry"/>
                </mxCell>
                <mxCell id="xPWGWnJrmiKth1kpf0G5-10" value="+ __init__(args)&lt;div&gt;+init_config(args)&lt;/div&gt;&lt;div&gt;+select_mortality_ahi_subject(pd.DataFrame): tuple(pd.DataFrame, pd.DataFrame)&lt;/div&gt;&lt;div&gt;+select_mortality_ahi_subject(pd.DataFrame):&lt;br&gt;&lt;/div&gt;&lt;div&gt;tuple(pd.DataFrame, pd.DataFrame)&lt;br&gt;&lt;/div&gt;&lt;div&gt;+make_dataset(string)&lt;/div&gt;" style="text;strokeColor=none;fillColor=none;align=left;verticalAlign=top;spacingLeft=4;spacingRight=4;overflow=hidden;rotatable=0;points=[[0,0.5],[1,0.5]];portConstraint=eastwest;whiteSpace=wrap;html=1;" parent="xPWGWnJrmiKth1kpf0G5-7" vertex="1">
                    <mxGeometry y="160" width="270" height="120" as="geometry"/>
                </mxCell>
                <mxCell id="xPWGWnJrmiKth1kpf0G5-44" style="rounded=0;orthogonalLoop=1;jettySize=auto;html=1;exitX=0.5;exitY=0;exitDx=0;exitDy=0;entryX=1;entryY=0.5;entryDx=0;entryDy=0;edgeStyle=orthogonalEdgeStyle;endArrow=diamondThin;endFill=1;" parent="1" source="xPWGWnJrmiKth1kpf0G5-12" target="xPWGWnJrmiKth1kpf0G5-7" edge="1">
                    <mxGeometry relative="1" as="geometry"/>
                </mxCell>
                <mxCell id="xPWGWnJrmiKth1kpf0G5-12" value="MyDataset" style="swimlane;fontStyle=1;align=center;verticalAlign=top;childLayout=stackLayout;horizontal=1;startSize=26;horizontalStack=0;resizeParent=1;resizeParentMax=0;resizeLast=0;collapsible=1;marginBottom=0;whiteSpace=wrap;html=1;" parent="1" vertex="1">
                    <mxGeometry x="360" y="520" width="270" height="150" as="geometry"/>
                </mxCell>
                <mxCell id="xPWGWnJrmiKth1kpf0G5-13" value="&lt;div&gt;&lt;div&gt;-feature_name&lt;/div&gt;&lt;/div&gt;&lt;div&gt;-x&lt;/div&gt;&lt;div&gt;-y&lt;/div&gt;&lt;div&gt;-folded_dataset&lt;/div&gt;" style="text;strokeColor=none;fillColor=none;align=left;verticalAlign=top;spacingLeft=4;spacingRight=4;overflow=hidden;rotatable=0;points=[[0,0.5],[1,0.5]];portConstraint=eastwest;whiteSpace=wrap;html=1;" parent="xPWGWnJrmiKth1kpf0G5-12" vertex="1">
                    <mxGeometry y="26" width="270" height="64" as="geometry"/>
                </mxCell>
                <mxCell id="xPWGWnJrmiKth1kpf0G5-14" value="" style="line;strokeWidth=1;fillColor=none;align=left;verticalAlign=middle;spacingTop=-1;spacingLeft=3;spacingRight=3;rotatable=0;labelPosition=right;points=[];portConstraint=eastwest;strokeColor=inherit;" parent="xPWGWnJrmiKth1kpf0G5-12" vertex="1">
                    <mxGeometry y="90" width="270" height="20" as="geometry"/>
                </mxCell>
                <mxCell id="xPWGWnJrmiKth1kpf0G5-15" value="+ __init__(feature_name, x, y)&lt;div&gt;+make_folded(cv)&lt;/div&gt;" style="text;strokeColor=none;fillColor=none;align=left;verticalAlign=top;spacingLeft=4;spacingRight=4;overflow=hidden;rotatable=0;points=[[0,0.5],[1,0.5]];portConstraint=eastwest;whiteSpace=wrap;html=1;" parent="xPWGWnJrmiKth1kpf0G5-12" vertex="1">
                    <mxGeometry y="110" width="270" height="40" as="geometry"/>
                </mxCell>
                <mxCell id="xPWGWnJrmiKth1kpf0G5-46" style="edgeStyle=orthogonalEdgeStyle;rounded=0;orthogonalLoop=1;jettySize=auto;html=1;" parent="1" source="xPWGWnJrmiKth1kpf0G5-22" target="xPWGWnJrmiKth1kpf0G5-7" edge="1">
                    <mxGeometry relative="1" as="geometry"/>
                </mxCell>
                <mxCell id="xPWGWnJrmiKth1kpf0G5-22" value="IOModule" style="swimlane;fontStyle=1;align=center;verticalAlign=top;childLayout=stackLayout;horizontal=1;startSize=26;horizontalStack=0;resizeParent=1;resizeParentMax=0;resizeLast=0;collapsible=1;marginBottom=0;whiteSpace=wrap;html=1;" parent="1" vertex="1">
                    <mxGeometry x="40" y="690" width="300" height="210" as="geometry"/>
                </mxCell>
                <mxCell id="xPWGWnJrmiKth1kpf0G5-23" value="&lt;div&gt;&lt;div&gt;-root_outdir: str&lt;/div&gt;&lt;/div&gt;&lt;div&gt;-excel_writers: dict&lt;/div&gt;&lt;div&gt;&lt;br&gt;&lt;/div&gt;" style="text;strokeColor=none;fillColor=none;align=left;verticalAlign=top;spacingLeft=4;spacingRight=4;overflow=hidden;rotatable=0;points=[[0,0.5],[1,0.5]];portConstraint=eastwest;whiteSpace=wrap;html=1;" parent="xPWGWnJrmiKth1kpf0G5-22" vertex="1">
                    <mxGeometry y="26" width="300" height="34" as="geometry"/>
                </mxCell>
                <mxCell id="xPWGWnJrmiKth1kpf0G5-24" value="" style="line;strokeWidth=1;fillColor=none;align=left;verticalAlign=middle;spacingTop=-1;spacingLeft=3;spacingRight=3;rotatable=0;labelPosition=right;points=[];portConstraint=eastwest;strokeColor=inherit;" parent="xPWGWnJrmiKth1kpf0G5-22" vertex="1">
                    <mxGeometry y="60" width="300" height="20" as="geometry"/>
                </mxCell>
                <mxCell id="xPWGWnJrmiKth1kpf0G5-25" value="+ __init__(root_outdir, classifier_list:ModelInput.)&lt;div&gt;+set_outdir(root_dir, classifier_list)&lt;/div&gt;&lt;div&gt;+from_picklefile(filename, classifier_name)&lt;/div&gt;&lt;div&gt;+to_picklefile(filename, data, classifier_name)&lt;br&gt;&lt;/div&gt;&lt;div&gt;+to_excelfile(filename, data, classifier_name)&lt;br&gt;&lt;/div&gt;&lt;div&gt;+add_excel_sheet(excel_filename, sheet_name, data)&lt;br&gt;&lt;/div&gt;&lt;div&gt;+get_outpath(filename, classifier_name)&lt;/div&gt;" style="text;strokeColor=none;fillColor=none;align=left;verticalAlign=top;spacingLeft=4;spacingRight=4;overflow=hidden;rotatable=0;points=[[0,0.5],[1,0.5]];portConstraint=eastwest;whiteSpace=wrap;html=1;" parent="xPWGWnJrmiKth1kpf0G5-22" vertex="1">
                    <mxGeometry y="80" width="300" height="130" as="geometry"/>
                </mxCell>
                <mxCell id="xPWGWnJrmiKth1kpf0G5-60" style="edgeStyle=orthogonalEdgeStyle;rounded=0;orthogonalLoop=1;jettySize=auto;html=1;" parent="1" source="xPWGWnJrmiKth1kpf0G5-30" target="xPWGWnJrmiKth1kpf0G5-22" edge="1">
                    <mxGeometry relative="1" as="geometry"/>
                </mxCell>
                <mxCell id="xPWGWnJrmiKth1kpf0G5-30" value="GSCV" style="swimlane;fontStyle=1;align=center;verticalAlign=top;childLayout=stackLayout;horizontal=1;startSize=26;horizontalStack=0;resizeParent=1;resizeParentMax=0;resizeLast=0;collapsible=1;marginBottom=0;whiteSpace=wrap;html=1;" parent="1" vertex="1">
                    <mxGeometry x="40" y="970" width="300" height="180" as="geometry"/>
                </mxCell>
                <mxCell id="xPWGWnJrmiKth1kpf0G5-31" value="&lt;div&gt;&lt;span style=&quot;background-color: initial;&quot;&gt;-classifier&lt;/span&gt;&lt;br&gt;&lt;/div&gt;&lt;div&gt;-train_result&lt;/div&gt;&lt;div&gt;-dataset&lt;/div&gt;&lt;div&gt;-io_module: IOModule&lt;/div&gt;" style="text;strokeColor=none;fillColor=none;align=left;verticalAlign=top;spacingLeft=4;spacingRight=4;overflow=hidden;rotatable=0;points=[[0,0.5],[1,0.5]];portConstraint=eastwest;whiteSpace=wrap;html=1;" parent="xPWGWnJrmiKth1kpf0G5-30" vertex="1">
                    <mxGeometry y="26" width="300" height="74" as="geometry"/>
                </mxCell>
                <mxCell id="xPWGWnJrmiKth1kpf0G5-32" value="" style="line;strokeWidth=1;fillColor=none;align=left;verticalAlign=middle;spacingTop=-1;spacingLeft=3;spacingRight=3;rotatable=0;labelPosition=right;points=[];portConstraint=eastwest;strokeColor=inherit;" parent="xPWGWnJrmiKth1kpf0G5-30" vertex="1">
                    <mxGeometry y="100" width="300" height="20" as="geometry"/>
                </mxCell>
                <mxCell id="xPWGWnJrmiKth1kpf0G5-33" value="+ __init__(io_module)&lt;div&gt;+train(classifier_name, model_input)&lt;br&gt;&lt;/div&gt;&lt;div&gt;+test()&lt;/div&gt;" style="text;strokeColor=none;fillColor=none;align=left;verticalAlign=top;spacingLeft=4;spacingRight=4;overflow=hidden;rotatable=0;points=[[0,0.5],[1,0.5]];portConstraint=eastwest;whiteSpace=wrap;html=1;" parent="xPWGWnJrmiKth1kpf0G5-30" vertex="1">
                    <mxGeometry y="120" width="300" height="60" as="geometry"/>
                </mxCell>
                <mxCell id="xPWGWnJrmiKth1kpf0G5-50" style="edgeStyle=orthogonalEdgeStyle;rounded=0;orthogonalLoop=1;jettySize=auto;html=1;" parent="1" source="xPWGWnJrmiKth1kpf0G5-35" target="xPWGWnJrmiKth1kpf0G5-30" edge="1">
                    <mxGeometry relative="1" as="geometry"/>
                </mxCell>
                <mxCell id="xPWGWnJrmiKth1kpf0G5-35" value="MyTrainResult" style="swimlane;fontStyle=1;align=center;verticalAlign=top;childLayout=stackLayout;horizontal=1;startSize=26;horizontalStack=0;resizeParent=1;resizeParentMax=0;resizeLast=0;collapsible=1;marginBottom=0;whiteSpace=wrap;html=1;" parent="1" vertex="1">
                    <mxGeometry x="360" y="970" width="290" height="180" as="geometry"/>
                </mxCell>
                <mxCell id="xPWGWnJrmiKth1kpf0G5-36" value="-preds&lt;div&gt;-reals&lt;/div&gt;&lt;div&gt;-probs&lt;/div&gt;&lt;div&gt;-feature_importances&lt;/div&gt;&lt;div&gt;-best_params&lt;/div&gt;" style="text;strokeColor=none;fillColor=none;align=left;verticalAlign=top;spacingLeft=4;spacingRight=4;overflow=hidden;rotatable=0;points=[[0,0.5],[1,0.5]];portConstraint=eastwest;whiteSpace=wrap;html=1;" parent="xPWGWnJrmiKth1kpf0G5-35" vertex="1">
                    <mxGeometry y="26" width="290" height="84" as="geometry"/>
                </mxCell>
                <mxCell id="xPWGWnJrmiKth1kpf0G5-37" value="" style="line;strokeWidth=1;fillColor=none;align=left;verticalAlign=middle;spacingTop=-1;spacingLeft=3;spacingRight=3;rotatable=0;labelPosition=right;points=[];portConstraint=eastwest;strokeColor=inherit;" parent="xPWGWnJrmiKth1kpf0G5-35" vertex="1">
                    <mxGeometry y="110" width="290" height="20" as="geometry"/>
                </mxCell>
                <mxCell id="xPWGWnJrmiKth1kpf0G5-38" value="+ __init__(preds, reals, probs, feature_importances, best_params)" style="text;strokeColor=none;fillColor=none;align=left;verticalAlign=top;spacingLeft=4;spacingRight=4;overflow=hidden;rotatable=0;points=[[0,0.5],[1,0.5]];portConstraint=eastwest;whiteSpace=wrap;html=1;" parent="xPWGWnJrmiKth1kpf0G5-35" vertex="1">
                    <mxGeometry y="130" width="290" height="50" as="geometry"/>
                </mxCell>
                <mxCell id="xPWGWnJrmiKth1kpf0G5-48" style="edgeStyle=orthogonalEdgeStyle;rounded=0;orthogonalLoop=1;jettySize=auto;html=1;entryX=0;entryY=0.5;entryDx=0;entryDy=0;" parent="1" source="xPWGWnJrmiKth1kpf0G5-31" target="xPWGWnJrmiKth1kpf0G5-7" edge="1">
                    <mxGeometry relative="1" as="geometry"/>
                </mxCell>
                <mxCell id="xPWGWnJrmiKth1kpf0G5-63" style="edgeStyle=orthogonalEdgeStyle;rounded=0;orthogonalLoop=1;jettySize=auto;html=1;" parent="1" source="xPWGWnJrmiKth1kpf0G5-51" target="xPWGWnJrmiKth1kpf0G5-22" edge="1">
                    <mxGeometry relative="1" as="geometry">
                        <Array as="points">
                            <mxPoint x="680" y="1345"/>
                            <mxPoint x="680" y="810"/>
                        </Array>
                    </mxGeometry>
                </mxCell>
                <mxCell id="xPWGWnJrmiKth1kpf0G5-64" style="edgeStyle=orthogonalEdgeStyle;rounded=0;orthogonalLoop=1;jettySize=auto;html=1;exitX=-0.006;exitY=0.262;exitDx=0;exitDy=0;exitPerimeter=0;" parent="1" source="xPWGWnJrmiKth1kpf0G5-54" target="xPWGWnJrmiKth1kpf0G5-7" edge="1">
                    <mxGeometry relative="1" as="geometry">
                        <mxPoint x="40" y="1320" as="sourcePoint"/>
                        <Array as="points">
                            <mxPoint x="40" y="1364"/>
                            <mxPoint x="40" y="1360"/>
                            <mxPoint x="-20" y="1360"/>
                            <mxPoint x="-20" y="370"/>
                        </Array>
                    </mxGeometry>
                </mxCell>
                <mxCell id="xPWGWnJrmiKth1kpf0G5-66" style="edgeStyle=orthogonalEdgeStyle;rounded=0;orthogonalLoop=1;jettySize=auto;html=1;" parent="1" source="xPWGWnJrmiKth1kpf0G5-51" target="xPWGWnJrmiKth1kpf0G5-30" edge="1">
                    <mxGeometry relative="1" as="geometry"/>
                </mxCell>
                <mxCell id="xPWGWnJrmiKth1kpf0G5-51" value="Performance" style="swimlane;fontStyle=1;align=center;verticalAlign=top;childLayout=stackLayout;horizontal=1;startSize=26;horizontalStack=0;resizeParent=1;resizeParentMax=0;resizeLast=0;collapsible=1;marginBottom=0;whiteSpace=wrap;html=1;" parent="1" vertex="1">
                    <mxGeometry x="40" y="1230" width="300" height="280" as="geometry"/>
                </mxCell>
                <mxCell id="xPWGWnJrmiKth1kpf0G5-52" value="&lt;div&gt;&lt;span style=&quot;background-color: initial;&quot;&gt;-io_module: IOModule&lt;/span&gt;&lt;br&gt;&lt;/div&gt;&lt;div&gt;&lt;span style=&quot;background-color: initial;&quot;&gt;-train_result&lt;/span&gt;&lt;/div&gt;&lt;div&gt;&lt;span style=&quot;background-color: initial;&quot;&gt;-best_fold&lt;/span&gt;&lt;/div&gt;&lt;div&gt;&lt;span style=&quot;background-color: initial;&quot;&gt;-train_result&lt;/span&gt;&lt;/div&gt;&lt;div&gt;-dataset&lt;/div&gt;" style="text;strokeColor=none;fillColor=none;align=left;verticalAlign=top;spacingLeft=4;spacingRight=4;overflow=hidden;rotatable=0;points=[[0,0.5],[1,0.5]];portConstraint=eastwest;whiteSpace=wrap;html=1;" parent="xPWGWnJrmiKth1kpf0G5-51" vertex="1">
                    <mxGeometry y="26" width="300" height="104" as="geometry"/>
                </mxCell>
                <mxCell id="xPWGWnJrmiKth1kpf0G5-53" value="" style="line;strokeWidth=1;fillColor=none;align=left;verticalAlign=middle;spacingTop=-1;spacingLeft=3;spacingRight=3;rotatable=0;labelPosition=right;points=[];portConstraint=eastwest;strokeColor=inherit;" parent="xPWGWnJrmiKth1kpf0G5-51" vertex="1">
                    <mxGeometry y="130" width="300" height="20" as="geometry"/>
                </mxCell>
                <mxCell id="xPWGWnJrmiKth1kpf0G5-54" value="+ __init__(train_result, io_module)&lt;div&gt;+get_delong_pvalue(classifier_name, train_result)&lt;br&gt;&lt;/div&gt;&lt;div&gt;&lt;div&gt;+get_performance()&lt;br&gt;&lt;/div&gt;&lt;/div&gt;&lt;div&gt;+get_best_param(&lt;span style=&quot;background-color: initial;&quot;&gt;classifier_name&lt;/span&gt;&lt;span style=&quot;background-color: initial;&quot;&gt;)&lt;/span&gt;&lt;/div&gt;&lt;div&gt;+get_feature_importance(classifier_name)&lt;/div&gt;&lt;div&gt;+get_perform_metric(&lt;span style=&quot;background-color: initial;&quot;&gt;classifier_name)&lt;/span&gt;&lt;/div&gt;&lt;div&gt;&lt;span style=&quot;background-color: initial;&quot;&gt;+get_metric_param_importance()&lt;/span&gt;&lt;/div&gt;&lt;div&gt;&lt;span style=&quot;background-color: initial;&quot;&gt;+export(clf_result, clf_feature,clf_param)&lt;/span&gt;&lt;/div&gt;&lt;div&gt;&lt;br&gt;&lt;/div&gt;" style="text;strokeColor=none;fillColor=none;align=left;verticalAlign=top;spacingLeft=4;spacingRight=4;overflow=hidden;rotatable=0;points=[[0,0.5],[1,0.5]];portConstraint=eastwest;whiteSpace=wrap;html=1;" parent="xPWGWnJrmiKth1kpf0G5-51" vertex="1">
                    <mxGeometry y="150" width="300" height="130" as="geometry"/>
                </mxCell>
                <mxCell id="xPWGWnJrmiKth1kpf0G5-61" style="edgeStyle=orthogonalEdgeStyle;rounded=0;orthogonalLoop=1;jettySize=auto;html=1;endArrow=diamondThin;endFill=1;" parent="1" source="xPWGWnJrmiKth1kpf0G5-55" edge="1">
                    <mxGeometry relative="1" as="geometry">
                        <mxPoint x="340" y="1380.0000000000002" as="targetPoint"/>
                        <mxPoint x="510" y="1530" as="sourcePoint"/>
                        <Array as="points">
                            <mxPoint x="510" y="1380"/>
                        </Array>
                    </mxGeometry>
                </mxCell>
                <mxCell id="xPWGWnJrmiKth1kpf0G5-55" value="MyStatistics" style="swimlane;fontStyle=1;align=center;verticalAlign=top;childLayout=stackLayout;horizontal=1;startSize=26;horizontalStack=0;resizeParent=1;resizeParentMax=0;resizeLast=0;collapsible=1;marginBottom=0;whiteSpace=wrap;html=1;" parent="1" vertex="1">
                    <mxGeometry x="360" y="1470" width="290" height="100" as="geometry"/>
                </mxCell>
                <mxCell id="xPWGWnJrmiKth1kpf0G5-56" value="&lt;div&gt;&lt;br&gt;&lt;/div&gt;" style="text;strokeColor=none;fillColor=none;align=left;verticalAlign=top;spacingLeft=4;spacingRight=4;overflow=hidden;rotatable=0;points=[[0,0.5],[1,0.5]];portConstraint=eastwest;whiteSpace=wrap;html=1;" parent="xPWGWnJrmiKth1kpf0G5-55" vertex="1">
                    <mxGeometry y="26" width="290" height="24" as="geometry"/>
                </mxCell>
                <mxCell id="xPWGWnJrmiKth1kpf0G5-57" value="" style="line;strokeWidth=1;fillColor=none;align=left;verticalAlign=middle;spacingTop=-1;spacingLeft=3;spacingRight=3;rotatable=0;labelPosition=right;points=[];portConstraint=eastwest;strokeColor=inherit;" parent="xPWGWnJrmiKth1kpf0G5-55" vertex="1">
                    <mxGeometry y="50" width="290" height="20" as="geometry"/>
                </mxCell>
                <mxCell id="xPWGWnJrmiKth1kpf0G5-58" value="&lt;div&gt;+ 각종 통계 계산법&lt;/div&gt;" style="text;strokeColor=none;fillColor=none;align=left;verticalAlign=top;spacingLeft=4;spacingRight=4;overflow=hidden;rotatable=0;points=[[0,0.5],[1,0.5]];portConstraint=eastwest;whiteSpace=wrap;html=1;" parent="xPWGWnJrmiKth1kpf0G5-55" vertex="1">
                    <mxGeometry y="70" width="290" height="30" as="geometry"/>
                </mxCell>
                <mxCell id="xPWGWnJrmiKth1kpf0G5-67" value="&lt;font style=&quot;font-size: 18px;&quot;&gt;/src/input/model_input.py&lt;/font&gt;" style="text;strokeColor=none;align=center;fillColor=none;html=1;verticalAlign=middle;whiteSpace=wrap;rounded=0;" parent="1" vertex="1">
                    <mxGeometry x="-250" y="280" width="160" height="30" as="geometry"/>
                </mxCell>
                <mxCell id="xPWGWnJrmiKth1kpf0G5-68" value="&lt;font style=&quot;font-size: 18px;&quot;&gt;/src/input/dataset.py&lt;/font&gt;" style="text;strokeColor=none;align=center;fillColor=none;html=1;verticalAlign=middle;whiteSpace=wrap;rounded=0;" parent="1" vertex="1">
                    <mxGeometry x="-250" y="610" width="160" height="30" as="geometry"/>
                </mxCell>
                <mxCell id="xPWGWnJrmiKth1kpf0G5-69" value="&lt;font style=&quot;font-size: 18px;&quot;&gt;/src/output/io_module.py&lt;/font&gt;" style="text;strokeColor=none;align=center;fillColor=none;html=1;verticalAlign=middle;whiteSpace=wrap;rounded=0;" parent="1" vertex="1">
                    <mxGeometry x="-250" y="770" width="160" height="30" as="geometry"/>
                </mxCell>
                <mxCell id="xPWGWnJrmiKth1kpf0G5-70" value="&lt;font style=&quot;font-size: 18px;&quot;&gt;/src/model/gscv.py&lt;/font&gt;" style="text;strokeColor=none;align=center;fillColor=none;html=1;verticalAlign=middle;whiteSpace=wrap;rounded=0;" parent="1" vertex="1">
                    <mxGeometry x="-250" y="1040" width="160" height="30" as="geometry"/>
                </mxCell>
                <mxCell id="xPWGWnJrmiKth1kpf0G5-71" value="&lt;font style=&quot;font-size: 18px;&quot;&gt;/src/postprocessing&lt;/font&gt;&lt;div&gt;&lt;font style=&quot;font-size: 18px;&quot;&gt;/model_performance.py&lt;/font&gt;&lt;/div&gt;" style="text;strokeColor=none;align=center;fillColor=none;html=1;verticalAlign=middle;whiteSpace=wrap;rounded=0;" parent="1" vertex="1">
                    <mxGeometry x="-250" y="1320" width="160" height="30" as="geometry"/>
                </mxCell>
                <mxCell id="xPWGWnJrmiKth1kpf0G5-72" value="&lt;font style=&quot;font-size: 18px;&quot;&gt;/src/postprocessing&lt;/font&gt;&lt;div&gt;&lt;font style=&quot;font-size: 18px;&quot;&gt;/my_statistics.py&lt;/font&gt;&lt;/div&gt;" style="text;strokeColor=none;align=center;fillColor=none;html=1;verticalAlign=middle;whiteSpace=wrap;rounded=0;" parent="1" vertex="1">
                    <mxGeometry x="-250" y="1530" width="160" height="30" as="geometry"/>
                </mxCell>
            </root>
        </mxGraphModel>
    </diagram>
</mxfile>